<?xml version="1.0" encoding="utf-8"?>
<!-- Generator: Adobe Illustrator 16.2.0, SVG Export Plug-In . SVG Version: 6.00 Build 0)  -->
<!DOCTYPE svg PUBLIC "-//W3C//DTD SVG 1.1//EN" "http://www.w3.org/Graphics/SVG/1.1/DTD/svg11.dtd">
<svg version="1.1" id="Layer_1" xmlns="http://www.w3.org/2000/svg" xmlns:xlink="http://www.w3.org/1999/xlink" x="0px" y="0px"
	 width="18px" height="18px" viewBox="0 0 18 18" enable-background="new 0 0 18 18" xml:space="preserve">
<g>
	<path d="M2.678,10.602c0.008,0.326,0.038,0.593,0.09,0.8c0.052,0.207,0.142,0.402,0.27,0.584c0.176,0.247,0.392,0.436,0.648,0.567
		c0.256,0.131,0.536,0.197,0.84,0.197c0.816,0,1.364-0.42,1.644-1.26h1.008c-0.128,0.688-0.426,1.226-0.894,1.614
		c-0.468,0.388-1.066,0.582-1.794,0.582c-0.448,0-0.848-0.076-1.2-0.228c-0.353-0.152-0.65-0.372-0.894-0.66
		c-0.244-0.288-0.432-0.638-0.564-1.05C1.7,11.336,1.634,10.87,1.634,10.35s0.068-0.99,0.204-1.41
		c0.136-0.42,0.33-0.778,0.582-1.074s0.554-0.524,0.906-0.684c0.352-0.16,0.748-0.24,1.188-0.24c0.608,0,1.142,0.154,1.602,0.462
		s0.782,0.734,0.966,1.278C7.17,8.906,7.23,9.168,7.262,9.468c0.032,0.3,0.048,0.678,0.048,1.134H2.678z M6.23,9.786
		c0-0.278-0.042-0.535-0.126-0.769S5.902,8.582,5.75,8.415C5.598,8.248,5.416,8.117,5.204,8.021
		C4.992,7.926,4.758,7.878,4.502,7.878c-0.504,0-0.92,0.173-1.248,0.519C2.926,8.743,2.742,9.206,2.702,9.786H6.23z"/>
	<path d="M8.896,5.748v4.429c0,0.508-0.333,0.762-1,0.762c-0.046,0-0.082-0.001-0.105-0.003c-0.023-0.002-0.053-0.008-0.091-0.018
		v-0.497c0.038,0.005,0.064,0.007,0.081,0.007s0.034,0,0.052,0c0.187,0,0.314-0.034,0.381-0.102
		c0.068-0.068,0.102-0.195,0.102-0.381V5.748H8.896z M8.896,5.048H8.316V4.314h0.581V5.048z"/>
	<path d="M12.077,8.212c0,0.434,0.245,0.769,0.58,0.769c0.349,0,0.706-0.434,0.706-1.342c0-0.664-0.238-1.272-0.559-1.586V6.032
		h0.58c0.301,0.258,0.58,0.846,0.58,1.621c0,1.258-0.636,1.838-1.279,1.838c-0.413,0-0.741-0.23-0.881-0.601h-0.028
		c-0.161,0.37-0.482,0.601-0.895,0.601c-0.587,0-1.237-0.496-1.237-1.782c0-0.762,0.293-1.384,0.594-1.677h0.566v0.021
		c-0.314,0.335-0.559,0.922-0.559,1.642c0,0.943,0.398,1.286,0.72,1.286c0.314,0,0.559-0.343,0.559-0.762l-0.014-1.293h0.58
		L12.077,8.212z"/>
	<path d="M15.485,5.06v0.972h0.88V6.5h-0.88v1.824c0,0.419,0.119,0.657,0.461,0.657c0.161,0,0.279-0.021,0.356-0.042L16.331,9.4
		c-0.119,0.049-0.308,0.084-0.545,0.084c-0.286,0-0.517-0.091-0.664-0.258c-0.175-0.182-0.238-0.482-0.238-0.881V6.5H14.36V6.032
		h0.524V5.221L15.485,5.06z"/>
</g>
</svg>
