<?xml version="1.0" encoding="utf-8"?>
<!-- Generator: Adobe Illustrator 16.2.0, SVG Export Plug-In . SVG Version: 6.00 Build 0)  -->
<!DOCTYPE svg PUBLIC "-//W3C//DTD SVG 1.1//EN" "http://www.w3.org/Graphics/SVG/1.1/DTD/svg11.dtd">
<svg version="1.1" id="Layer_1" xmlns="http://www.w3.org/2000/svg" xmlns:xlink="http://www.w3.org/1999/xlink" x="0px" y="0px"
	 width="70px" height="18px" viewBox="0 0 70 18" enable-background="new 0 0 70 18" xml:space="preserve">
<g>
	<path d="M8.588,12.306c-0.16,0.04-0.286,0.068-0.378,0.084c-0.092,0.017-0.194,0.024-0.306,0.024c-0.328,0-0.572-0.072-0.732-0.216
		c-0.16-0.145-0.26-0.38-0.3-0.708c-0.36,0.328-0.706,0.563-1.038,0.708c-0.332,0.144-0.698,0.216-1.098,0.216
		c-0.64,0-1.144-0.168-1.512-0.503c-0.368-0.335-0.552-0.79-0.552-1.365c0-0.822,0.388-1.386,1.164-1.688
		c0.096-0.032,0.186-0.062,0.27-0.09S4.3,8.714,4.437,8.689c0.136-0.023,0.31-0.05,0.522-0.078c0.212-0.027,0.49-0.065,0.834-0.113
		c0.4-0.048,0.674-0.124,0.822-0.228s0.222-0.26,0.222-0.467V7.54c0-0.304-0.12-0.535-0.36-0.694c-0.24-0.16-0.588-0.24-1.044-0.24
		c-0.472,0-0.826,0.091-1.062,0.271c-0.236,0.18-0.374,0.462-0.414,0.846H2.948c0.016-0.328,0.058-0.594,0.126-0.798
		s0.182-0.387,0.342-0.549c0.216-0.227,0.5-0.401,0.852-0.522C4.621,5.73,5.017,5.67,5.457,5.67c0.784,0,1.376,0.146,1.776,0.438
		s0.6,0.718,0.6,1.277v3.696c0,0.328,0.18,0.492,0.54,0.492c0.032,0,0.062,0,0.09,0s0.07-0.008,0.126-0.024V12.306z M6.836,9.03
		C6.749,9.07,6.667,9.104,6.59,9.132S6.42,9.186,6.309,9.21C6.196,9.234,6.054,9.26,5.882,9.288s-0.39,0.058-0.654,0.09
		c-0.544,0.08-0.932,0.208-1.164,0.384c-0.232,0.177-0.348,0.433-0.348,0.769c0,0.319,0.108,0.567,0.324,0.744
		c0.216,0.176,0.52,0.264,0.912,0.264c0.576,0,1.072-0.188,1.488-0.564c0.152-0.136,0.256-0.264,0.312-0.384
		c0.056-0.12,0.084-0.264,0.084-0.432V9.03z"/>
	<path d="M10.616,5.85l-0.001,1.057c0.271-0.44,0.568-0.756,0.892-0.948s0.72-0.288,1.191-0.288c0.606,0,1.089,0.154,1.448,0.462
		c0.359,0.309,0.539,0.727,0.539,1.254v4.752h-0.996V7.782c0-0.385-0.116-0.687-0.347-0.906s-0.546-0.33-0.944-0.33
		c-0.518,0-0.93,0.192-1.237,0.576C10.854,7.506,10.7,8.021,10.7,8.67v3.468H9.68V5.85H10.616z"/>
	<path d="M21.932,12.306c-0.16,0.04-0.286,0.068-0.378,0.084c-0.092,0.017-0.194,0.024-0.306,0.024
		c-0.328,0-0.572-0.072-0.732-0.216c-0.16-0.145-0.26-0.38-0.3-0.708c-0.36,0.328-0.706,0.563-1.038,0.708
		c-0.332,0.144-0.698,0.216-1.098,0.216c-0.64,0-1.144-0.168-1.512-0.503c-0.368-0.335-0.552-0.79-0.552-1.365
		c0-0.822,0.388-1.386,1.164-1.688c0.096-0.032,0.186-0.062,0.27-0.09s0.194-0.054,0.33-0.078c0.136-0.023,0.31-0.05,0.522-0.078
		c0.212-0.027,0.49-0.065,0.834-0.113c0.4-0.048,0.674-0.124,0.822-0.228s0.222-0.26,0.222-0.467V7.54
		c0-0.304-0.12-0.535-0.36-0.694c-0.24-0.16-0.588-0.24-1.044-0.24c-0.472,0-0.826,0.091-1.062,0.271
		c-0.236,0.18-0.374,0.462-0.414,0.846h-1.008c0.016-0.328,0.058-0.594,0.126-0.798S16.6,6.537,16.76,6.375
		c0.216-0.227,0.5-0.401,0.852-0.522C17.964,5.73,18.36,5.67,18.8,5.67c0.784,0,1.376,0.146,1.776,0.438s0.6,0.718,0.6,1.277v3.696
		c0,0.328,0.18,0.492,0.54,0.492c0.032,0,0.062,0,0.09,0s0.07-0.008,0.126-0.024V12.306z M20.18,9.03
		c-0.088,0.04-0.17,0.073-0.246,0.102s-0.17,0.054-0.282,0.078c-0.112,0.024-0.254,0.05-0.426,0.078s-0.39,0.058-0.654,0.09
		c-0.544,0.08-0.932,0.208-1.164,0.384c-0.232,0.177-0.348,0.433-0.348,0.769c0,0.319,0.108,0.567,0.324,0.744
		c0.216,0.176,0.52,0.264,0.912,0.264c0.576,0,1.072-0.188,1.488-0.564c0.152-0.136,0.256-0.264,0.312-0.384
		c0.056-0.12,0.084-0.264,0.084-0.432V9.03z"/>
	<path d="M24.02,12.138H23V3.39h1.02V12.138z"/>
	<path d="M28.172,5.67c0.432,0,0.822,0.078,1.17,0.234c0.348,0.155,0.642,0.378,0.882,0.666c0.24,0.288,0.424,0.64,0.552,1.056
		c0.127,0.416,0.192,0.888,0.192,1.416c0,1.064-0.25,1.892-0.75,2.484c-0.5,0.592-1.198,0.888-2.094,0.888s-1.594-0.294-2.094-0.882
		c-0.5-0.588-0.75-1.414-0.75-2.479c0-1.088,0.25-1.924,0.75-2.508C26.53,5.962,27.244,5.67,28.172,5.67z M28.1,6.605
		c-0.552,0-0.986,0.218-1.302,0.651c-0.316,0.434-0.474,1.029-0.474,1.785c0,0.765,0.16,1.361,0.48,1.791
		c0.32,0.43,0.76,0.645,1.32,0.645s1-0.215,1.32-0.645c0.32-0.43,0.48-1.022,0.48-1.779c0-0.771-0.16-1.373-0.48-1.803
		C29.124,6.821,28.676,6.605,28.1,6.605z"/>
	<path d="M37.388,5.85v5.256c0,0.736-0.05,1.322-0.15,1.759c-0.1,0.436-0.27,0.798-0.51,1.086c-0.208,0.256-0.5,0.454-0.876,0.594
		s-0.8,0.21-1.272,0.21c-0.744,0-1.334-0.166-1.77-0.498s-0.682-0.798-0.738-1.397h1.02c0.032,0.184,0.076,0.329,0.132,0.438
		c0.056,0.108,0.148,0.206,0.276,0.294c0.136,0.112,0.3,0.194,0.492,0.246c0.192,0.052,0.4,0.078,0.624,0.078
		c0.304,0,0.578-0.053,0.822-0.156s0.434-0.248,0.57-0.432c0.128-0.185,0.22-0.408,0.276-0.672c0.056-0.265,0.084-0.612,0.084-1.044
		v-0.324c-0.28,0.4-0.57,0.688-0.87,0.864c-0.3,0.176-0.642,0.264-1.026,0.264c-0.336,0-0.664-0.074-0.984-0.222
		c-0.32-0.148-0.596-0.354-0.828-0.618c-0.528-0.616-0.792-1.44-0.792-2.473c0-0.512,0.064-0.979,0.192-1.403
		s0.31-0.786,0.546-1.086c0.236-0.301,0.518-0.532,0.846-0.696c0.328-0.164,0.692-0.246,1.092-0.246
		c0.408,0,0.766,0.088,1.074,0.264c0.308,0.177,0.59,0.452,0.846,0.828V5.85H37.388z M34.628,6.605c-0.528,0-0.946,0.22-1.254,0.657
		s-0.462,1.031-0.462,1.779c0,0.765,0.154,1.361,0.462,1.791s0.738,0.645,1.29,0.645c0.536,0,0.954-0.213,1.254-0.639
		c0.3-0.426,0.45-1.021,0.45-1.785c0-0.78-0.152-1.383-0.456-1.809C35.608,6.819,35.18,6.605,34.628,6.605z"/>
	<path d="M48.344,6.114c-0.072-0.336-0.158-0.608-0.258-0.816c-0.1-0.208-0.238-0.388-0.414-0.54
		c-0.184-0.16-0.426-0.286-0.726-0.378s-0.622-0.138-0.966-0.138c-0.424,0-0.806,0.084-1.146,0.251
		c-0.34,0.167-0.628,0.406-0.864,0.718c-0.236,0.311-0.418,0.689-0.546,1.136c-0.128,0.447-0.192,0.949-0.192,1.507
		c0,0.543,0.066,1.033,0.198,1.472c0.132,0.438,0.322,0.813,0.57,1.124c0.248,0.311,0.548,0.55,0.9,0.718
		c0.352,0.167,0.744,0.251,1.176,0.251c0.488,0,0.91-0.1,1.266-0.3s0.626-0.492,0.81-0.876c0.08-0.176,0.148-0.366,0.204-0.57
		c0.056-0.204,0.108-0.45,0.156-0.738h1.152c-0.264,2.32-1.457,3.48-3.576,3.48c-0.592,0-1.106-0.082-1.542-0.246
		s-0.826-0.422-1.17-0.774c-0.412-0.424-0.727-0.936-0.945-1.535c-0.218-0.601-0.327-1.265-0.327-1.992
		c0-0.712,0.105-1.37,0.315-1.975c0.21-0.604,0.517-1.122,0.92-1.554c0.656-0.728,1.58-1.092,2.772-1.092
		c0.968,0,1.728,0.236,2.28,0.708c0.552,0.472,0.916,1.192,1.092,2.16H48.344z"/>
	<path d="M52.412,12.138h-1.128V3.39h3.612c0.872,0,1.54,0.223,2.004,0.666c0.464,0.444,0.696,1.078,0.696,1.902
		c0,0.408-0.06,0.758-0.179,1.05c-0.12,0.292-0.312,0.559-0.575,0.798c-0.463,0.416-1.026,0.624-1.688,0.624h-2.741V12.138z
		 M54.733,7.434c0.534,0,0.951-0.135,1.25-0.404c0.299-0.27,0.449-0.644,0.449-1.119c0-0.477-0.15-0.85-0.449-1.119
		c-0.299-0.271-0.716-0.405-1.25-0.405h-2.321v3.048H54.733z"/>
	<path d="M62.636,12.138l-2.484-7.332v7.332h-1.056V3.39h1.548l2.592,7.62l2.544-7.62h1.548v8.748h-1.056V4.806l-2.46,7.332H62.636z
		"/>
</g>
</svg>
